999
FreeCAD v0.19 24415 (Git)
  0
SECTION
  2
HEADER
  9
$ACADVER
  1
AC1014
  9
$ACADMAINTVER
 70
     9
  9
$DWGCODEPAGE
  3
ANSI_1252
  9
$TEXTSTYLE
  7
STANDARD
  9
$DIMSTYLE
  2
STANDARD
  9
$DIMTXSTY
  7
STANDARD
  9
$CMLSTYLE
  2
STANDARD
  9
$PEXTMAX
 10
50
 20
50
 30
50
  9
$PEXTMIN
 10
0
 20
0
 30
0
  9
$HANDSEED
  5
FFFF
  0
ENDSEC
  0
SECTION
  2
CLASSES
  0
CLASS
  1
ACDBDICTIONARYWDFLT
  2
AcDbDictionaryWithDefault
  3
ObjectDBX Classes
 90
        0
280
     0
281
     0
  0
CLASS
  1
XRECORD
  2
AcDbXrecord
  3
ObjectDBX Classes
 90
        0
280
     0
281
     0
  0
CLASS
  1
LWPOLYLINE
  2
AcDbPolyline
  3
ObjectDBX Classes
 90
        0
280
     0
281
     1
  0
ENDSEC
  0
SECTION
  2
TABLES
  0
TABLE
  2
VPORT
  5
20
330
0
100
AcDbSymbolTable
 70
     1
  0
VPORT
  5
21
330
20
100
AcDbSymbolTableRecord
100
AcDbViewportTableRecord
  2
*ACTIVE
 70
     0
  0
ENDTAB
  0
TABLE
  2
LTYPE
  5
22
330
0
100
AcDbSymbolTable
 70
     1
  0
LTYPE
  5
23
330
21
100
AcDbSymbolTableRecord
100
AcDbLinetypeTableRecord
  2
BYBLOCK
 70
     0
  3

 72
    65
 73
     0
 40
0.0
  0
LTYPE
  5
24
330
21
100
AcDbSymbolTableRecord
100
AcDbLinetypeTableRecord
  2
BYLAYER
 70
     0
  3

 72
    65
 73
     0
 40
0.0
  0
LTYPE
  5
25
330
21
100
AcDbSymbolTableRecord
100
AcDbLinetypeTableRecord
  2
CONTINUOUS
 70
     0
  3
Solid line
 72
    65
 73
     0
 40
0.0
  0
ENDTAB
  0
TABLE
  2
LAYER
  5
A40
330
0
100
AcDbSymbolTable
 70
5
  0
LAYER
  5
A41
330
A40
100
AcDbSymbolTableRecord
100
AcDbLayerTableRecord
  2
0
 70
   0
 62
   7
  6
CONTINUOUS
  0
LAYER
  5
A42
330
A40
100
AcDbSymbolTableRecord
100
AcDbLayerTableRecord
  2
View
 70
    0
 62
    7
  6
CONTINUOUS
  0
LAYER
  5
A43
330
A40
100
AcDbSymbolTableRecord
100
AcDbLayerTableRecord
  2
Dimension
 70
    0
 62
    7
  6
CONTINUOUS
  0
LAYER
  5
A44
330
A40
100
AcDbSymbolTableRecord
100
AcDbLayerTableRecord
  2
Dimension001
 70
    0
 62
    7
  6
CONTINUOUS
  0
LAYER
  5
A45
330
A40
100
AcDbSymbolTableRecord
100
AcDbLayerTableRecord
  2
Dimension002
 70
    0
 62
    7
  6
CONTINUOUS
  0
ENDTAB
  0
TABLE
  2
STYLE
  5
70
330
0
100
AcDbSymbolTable
 70
     2
  0
STYLE
  5
71
330
70
100
AcDbSymbolTableRecord
100
AcDbTextStyleTableRecord
  2
STANDARD
 70
     0
 40
0.0
 41
1.0
 50
0.0
 71
     0
 42
2.5
  3
arial.ttf
  4

  0
STYLE
  5
72
330
70
100
AcDbSymbolTableRecord
100
AcDbTextStyleTableRecord
  2
ANNOTATIVE
 70
     0
 40
0.0
 41
1.0
 50
0.0
 71
     0
 42
2.5
  3
arial.ttf
  4

  0
ENDTAB
  0
TABLE
  2
VIEW
  5
73
330
0
100
AcDbSymbolTable
 70
     0
  0
ENDTAB
  0
TABLE
  2
UCS
  5
74
330
0
100
AcDbSymbolTable
 70
     0
  0
ENDTAB
  0
TABLE
  2
APPID
  5
75
330
0
100
AcDbSymbolTable
 70
     2
  0
APPID
  5
76
330
75
100
AcDbSymbolTableRecord
100
AcDbRegAppTableRecord
  2
ACAD
 70
     0
  0
APPID
  5
77
330
75
100
AcDbSymbolTableRecord
100
AcDbRegAppTableRecord
  2
ACADANNOTATIVE
 70
     0
  0
ENDTAB
  0
TABLE
  2
DIMSTYLE
  5
78
330
0
100
AcDbSymbolTable
 70
     2
  0
DIMSTYLE
105
79
330
78
100
AcDbSymbolTableRecord
100
AcDbDimStyleTableRecord
  2
STANDARD
 70
     0
  3

  4

  5

  6

  7

 40
0.0
 41
2.5
 42
0.625
 43
3.75
 44
1.25
 45
0.0
 46
0.0
 47
0.0
 48
0.0
140
2.5
141
2.5
142
0.0
143
0.03937007874016
144
1.0
145
0.0
146
1.0
147
0.625
 71
     0
 72
     0
 73
     0
 74
     0
 75
     0
 76
     0
 77
     1
 78
     8
170
     0
171
     3
172
     1
173
     0
174
     0
175
     0
176
     0
177
     0
178
     0
270
     2
271
     2
272
     2
273
     2
274
     3
340
71
275
     0
280
     0
281
     0
282
     0
283
     0
284
     8
285
     0
286
     0
287
     3
288
     0
  0
ENDTAB
  0
TABLE
  2
BLOCK_RECORD
  5
A01
330
0
100
AcDbSymbolTable
  70
5
  0
BLOCK_RECORD
  5
A02
330
A01
100
AcDbSymbolTableRecord
100
AcDbBlockTableRecord
  2
*MODEL_SPACE
  0
BLOCK_RECORD
  5
A03
330
A01
100
AcDbSymbolTableRecord
100
AcDbBlockTableRecord
  2
*PAPER_SPACE
  0
BLOCK_RECORD
  5
A23
330
A01
100
AcDbSymbolTableRecord
100
AcDbBlockTableRecord
  2
*Dimension
  0
BLOCK_RECORD
  5
A2D
330
A01
100
AcDbSymbolTableRecord
100
AcDbBlockTableRecord
  2
*Dimension001
  0
BLOCK_RECORD
  5
A37
330
A01
100
AcDbSymbolTableRecord
100
AcDbBlockTableRecord
  2
*Dimension002
  0
ENDTAB
  0
ENDSEC
  0
SECTION
  2
BLOCKS
  0
BLOCK
  5
A04
330
A02
100
AcDbEntity
  8
0
100
AcDbBlockBegin
  2
*MODEL_SPACE
 70
   0
 10
0
 20
0
 30
0
  3
*MODEL_SPACE
  1
 
  0
ENDBLK
  5
A05
330
A02
100
AcDbEntity
  8
0
100
AcDbBlockEnd
  0
BLOCK
  5
A06
330
A03
100
AcDbEntity
 67
1
  8
0
100
AcDbBlockBegin
  2
*PAPER_SPACE
 70
   0
 10
0
 20
0
 30
0
  3
*PAPER_SPACE
  1
 
  0
ENDBLK
  5
A07
330
A03
100
AcDbEntity
 67
    1
  8
0
100
AcDbBlockEnd
  0
BLOCK
  5
A24
330
A23
100
AcDbEntity
  8
Dimension
100
AcDbBlockBegin
  2
*Dimension
 70
   1
 10
0
 20
0
 30
0
  3
*Dimension
  1
 
  0
LINE
  5
A25
330
A23
100
AcDbEntity
  8
Dimension
100
AcDbLine
 10
35
 20
165
 30
0
 11
35
 21
187.151
 31
0
  0
LINE
  5
A26
330
A23
100
AcDbEntity
  8
Dimension
100
AcDbLine
 10
165
 20
165
 30
0
 11
165
 21
187.151
 31
0
  0
LINE
  5
A27
330
A23
100
AcDbEntity
  8
Dimension
100
AcDbLine
 10
165
 20
187.151
 30
0
 11
35
 21
187.151
 31
0
  0
TEXT
  5
A28
330
A23
100
AcDbEntity
  8
Dimension
100
AcDbText
 10
95.7782
 20
182.151
 30
0
 40
3.5
  1
 m
  7
STANDARD
 72
1
 11
95.7782
 21
187.151
 31
0
100
AcDbText
  0
SOLID
  5
A29
330
A23
100
AcDbEntity
  8
0
 62
     0
100
AcDbTrace
 10
170
 20
187.568
 30
0
 11
170
 21
186.734
 31
0
 12
165
 22
187.151
 32
0
 13
165
 23
187.151
 33
0
  0
SOLID
  5
A2A
330
A23
100
AcDbEntity
  8
0
 62
     0
100
AcDbTrace
 10
30
 20
187.568
 30
0
 11
30
 21
186.734
 31
0
 12
35
 22
187.151
 32
0
 13
35
 23
187.151
 33
0
  0
ENDBLK
  5
A2B
330
A23
100
AcDbEntity
  8
Dimension
100
AcDbBlockEnd
  0
BLOCK
  5
A2E
330
A2D
100
AcDbEntity
  8
Dimension001
100
AcDbBlockBegin
  2
*Dimension001
 70
   1
 10
0
 20
0
 30
0
  3
*Dimension001
  1
 
  0
LINE
  5
A2F
330
A2D
100
AcDbEntity
  8
Dimension001
100
AcDbLine
 10
40
 20
70
 30
0
 11
30.2237
 21
70
 31
0
  0
LINE
  5
A30
330
A2D
100
AcDbEntity
  8
Dimension001
100
AcDbLine
 10
40
 20
170
 30
0
 11
30.2237
 21
170
 31
0
  0
LINE
  5
A31
330
A2D
100
AcDbEntity
  8
Dimension001
100
AcDbLine
 10
30.2237
 20
170
 30
0
 11
30.2237
 21
70
 31
0
  0
TEXT
  5
A32
330
A2D
100
AcDbEntity
  8
Dimension001
100
AcDbText
 10
25.2237
 20
124.222
 30
0
 40
3.5
  1
 m
  7
STANDARD
 72
1
 11
30.2237
 21
124.222
 31
0
100
AcDbText
  0
SOLID
  5
A33
330
A2D
100
AcDbEntity
  8
0
 62
     0
100
AcDbTrace
 10
29.807
 20
175
 30
0
 11
30.6404
 21
175
 31
0
 12
30.2237
 22
170
 32
0
 13
30.2237
 23
170
 33
0
  0
SOLID
  5
A34
330
A2D
100
AcDbEntity
  8
0
 62
     0
100
AcDbTrace
 10
29.807
 20
65
 30
0
 11
30.6404
 21
65
 31
0
 12
30.2237
 22
70
 32
0
 13
30.2237
 23
70
 33
0
  0
ENDBLK
  5
A35
330
A2D
100
AcDbEntity
  8
Dimension001
100
AcDbBlockEnd
  0
BLOCK
  5
A38
330
A37
100
AcDbEntity
  8
Dimension002
100
AcDbBlockBegin
  2
*Dimension002
 70
   1
 10
0
 20
0
 30
0
  3
*Dimension002
  1
 
  0
LINE
  5
A39
330
A37
100
AcDbEntity
  8
Dimension002
100
AcDbLine
 10
129.5
 20
112.5
 30
0
 11
121.307
 21
112.5
 31
0
  0
LINE
  5
A3A
330
A37
100
AcDbEntity
  8
Dimension002
100
AcDbLine
 10
129.5
 20
127.5
 30
0
 11
121.307
 21
127.5
 31
0
  0
LINE
  5
A3B
330
A37
100
AcDbEntity
  8
Dimension002
100
AcDbLine
 10
121.307
 20
127.5
 30
0
 11
121.307
 21
112.5
 31
0
  0
TEXT
  5
A3C
330
A37
100
AcDbEntity
  8
Dimension002
100
AcDbText
 10
116.307
 20
145.067
 30
0
 40
3.5
  1
 m
  7
STANDARD
 72
1
 11
121.307
 21
145.067
 31
0
100
AcDbText
  0
SOLID
  5
A3D
330
A37
100
AcDbEntity
  8
0
 62
     0
100
AcDbTrace
 10
120.89
 20
132.5
 30
0
 11
121.724
 21
132.5
 31
0
 12
121.307
 22
127.5
 32
0
 13
121.307
 23
127.5
 33
0
  0
SOLID
  5
A3E
330
A37
100
AcDbEntity
  8
0
 62
     0
100
AcDbTrace
 10
120.89
 20
107.5
 30
0
 11
121.724
 21
107.5
 31
0
 12
121.307
 22
112.5
 32
0
 13
121.307
 23
112.5
 33
0
  0
ENDBLK
  5
A3F
330
A37
100
AcDbEntity
  8
Dimension002
100
AcDbBlockEnd
  0
ENDSEC
  0
SECTION
  2
ENTITIES
  0
LINE
  5
A08
330
A02
100
AcDbEntity
  8
View
100
AcDbLine
 10
165
 20
165
 30
0
 11
165
 21
75
 31
0
  0
ARC
  5
A09
330
A02
100
AcDbEntity
  8
View
100
AcDbCircle
 10
160
 20
75
 30
0
 40
5
100
AcDbArc
 50
-90
 51
0
  0
ARC
  5
A0A
330
A02
100
AcDbEntity
  8
View
100
AcDbCircle
 10
160
 20
165
 30
0
 40
5
100
AcDbArc
 50
0
 51
90
  0
LINE
  5
A0B
330
A02
100
AcDbEntity
  8
View
100
AcDbLine
 10
160
 20
70
 30
0
 11
139.5
 21
70
 31
0
  0
LINE
  5
A0C
330
A02
100
AcDbEntity
  8
View
100
AcDbLine
 10
139.5
 20
170
 30
0
 11
160
 21
170
 31
0
  0
LINE
  5
A0D
330
A02
100
AcDbEntity
  8
View
100
AcDbLine
 10
139.5
 20
70
 30
0
 11
139.5
 21
102.5
 31
0
  0
LINE
  5
A0E
330
A02
100
AcDbEntity
  8
View
100
AcDbLine
 10
139.5
 20
170
 30
0
 11
139.5
 21
137.5
 31
0
  0
ARC
  5
A0F
330
A02
100
AcDbEntity
  8
View
100
AcDbCircle
 10
129.5
 20
102.5
 30
0
 40
10
100
AcDbArc
 50
0
 51
90
  0
ARC
  5
A10
330
A02
100
AcDbEntity
  8
View
100
AcDbCircle
 10
129.5
 20
137.5
 30
0
 40
10
100
AcDbArc
 50
-90
 51
0
  0
LINE
  5
A11
330
A02
100
AcDbEntity
  8
View
100
AcDbLine
 10
129.5
 20
112.5
 30
0
 11
70.5
 21
112.5
 31
0
  0
LINE
  5
A12
330
A02
100
AcDbEntity
  8
View
100
AcDbLine
 10
129.5
 20
127.5
 30
0
 11
70.5
 21
127.5
 31
0
  0
ARC
  5
A13
330
A02
100
AcDbEntity
  8
View
100
AcDbCircle
 10
70.5
 20
102.5
 30
0
 40
10
100
AcDbArc
 50
90
 51
180
  0
ARC
  5
A14
330
A02
100
AcDbEntity
  8
View
100
AcDbCircle
 10
70.5
 20
137.5
 30
0
 40
10
100
AcDbArc
 50
180
 51
-90
  0
LINE
  5
A15
330
A02
100
AcDbEntity
  8
View
100
AcDbLine
 10
60.5
 20
102.5
 30
0
 11
60.5
 21
70
 31
0
  0
LINE
  5
A16
330
A02
100
AcDbEntity
  8
View
100
AcDbLine
 10
60.5
 20
137.5
 30
0
 11
60.5
 21
170
 31
0
  0
LINE
  5
A17
330
A02
100
AcDbEntity
  8
View
100
AcDbLine
 10
60.5
 20
70
 30
0
 11
40
 21
70
 31
0
  0
LINE
  5
A18
330
A02
100
AcDbEntity
  8
View
100
AcDbLine
 10
40
 20
170
 30
0
 11
60.5
 21
170
 31
0
  0
ARC
  5
A19
330
A02
100
AcDbEntity
  8
View
100
AcDbCircle
 10
40
 20
75
 30
0
 40
5
100
AcDbArc
 50
180
 51
-90
  0
ARC
  5
A1A
330
A02
100
AcDbEntity
  8
View
100
AcDbCircle
 10
40
 20
165
 30
0
 40
5
100
AcDbArc
 50
90
 51
180
  0
LINE
  5
A1B
330
A02
100
AcDbEntity
  8
View
100
AcDbLine
 10
35
 20
75
 30
0
 11
35
 21
165
 31
0
  0
CIRCLE
  5
A1C
330
A02
100
AcDbEntity
  8
View
100
AcDbCircle
 10
158.25
 20
90
 40
3.5
  0
CIRCLE
  5
A1D
330
A02
100
AcDbEntity
  8
View
100
AcDbCircle
 10
41.75
 20
90
 40
3.5
  0
CIRCLE
  5
A1E
330
A02
100
AcDbEntity
  8
View
100
AcDbCircle
 10
119.5
 20
120
 40
3.5
  0
CIRCLE
  5
A1F
330
A02
100
AcDbEntity
  8
View
100
AcDbCircle
 10
158.25
 20
150
 40
3.5
  0
CIRCLE
  5
A20
330
A02
100
AcDbEntity
  8
View
100
AcDbCircle
 10
80.5
 20
120
 40
3.5
  0
CIRCLE
  5
A21
330
A02
100
AcDbEntity
  8
View
100
AcDbCircle
 10
41.75
 20
150
 40
3.5
  0
DIMENSION
  5
A22
330
A02
100
AcDbEntity
  8
Dimension
100
AcDbDimension
  2
*Dimension
 10
95.7782
 20
187.151
 30
0
 11
95.7782
 21
182.151
 31
0
 70
32
  1
 m
  3
STANDARD
100
AcDbAlignedDimension
 13
165
 23
165
 33
0
 14
35
 24
165
 34
0
100
AcDbRotatedDimension
  0
DIMENSION
  5
A2C
330
A02
100
AcDbEntity
  8
Dimension001
100
AcDbDimension
  2
*Dimension001
 10
30.2237
 20
124.222
 30
0
 11
25.2237
 21
124.222
 31
0
 70
32
  1
 m
  3
STANDARD
100
AcDbAlignedDimension
 13
40
 23
170
 33
0
 14
40
 24
70
 34
0
 50
90
100
AcDbRotatedDimension
  0
DIMENSION
  5
A36
330
A02
100
AcDbEntity
  8
Dimension002
100
AcDbDimension
  2
*Dimension002
 10
121.307
 20
145.067
 30
0
 11
116.307
 21
145.067
 31
0
 70
32
  1
 m
  3
STANDARD
100
AcDbAlignedDimension
 13
129.5
 23
127.5
 33
0
 14
129.5
 24
112.5
 34
0
 50
90
100
AcDbRotatedDimension
  0
ENDSEC
  0
SECTION
  2
OBJECTS
  0
DICTIONARY
  5
F000
330
0
100
AcDbDictionary
  3
ACAD_GROUP
350
F001
  0
DICTIONARY
  5
F001
330
F000
100
AcDbDictionary
  0
ENDSEC
  0
EOF